<svg width="18" height="20" viewBox="0 0 18 20" fill="none" xmlns="http://www.w3.org/2000/svg">
<path d="M15.4405 4.16113C14.3905 3.47651 13.6329 2.38075 13.3965 1.10419C13.3454 0.828453 13.317 0.544395 13.317 0.253906H9.96583L9.96016 13.6848C9.90418 15.1891 8.6662 16.3961 7.1487 16.3961C6.67703 16.3961 6.23298 16.2784 5.84188 16.0723C4.94507 15.6006 4.33119 14.6607 4.33119 13.5793C4.33119 12.0259 5.59527 10.7618 7.14832 10.7618C7.43843 10.7618 7.71644 10.8098 7.97931 10.8919V7.47073C7.70698 7.43328 7.43049 7.41059 7.14832 7.41059C3.74718 7.41059 0.97998 10.1774 0.97998 13.5793C0.97998 15.6661 2.02241 17.513 3.61367 18.6296C4.61525 19.3335 5.83431 19.7476 7.1487 19.7476C10.5502 19.7476 13.317 16.9804 13.317 13.5793V6.76833C14.6314 7.71167 16.242 8.26768 17.98 8.26768V4.91609C17.0438 4.91609 16.172 4.63809 15.4405 4.16113Z" fill="white"/>
</svg>
