<svg width="18" height="18" viewBox="0 0 18 18" fill="none" xmlns="http://www.w3.org/2000/svg">
<path d="M0.0443819 0.0295372C0.0370057 0.0412998 0.634479 0.907869 1.36841 1.95089C2.10235 2.99391 3.66242 5.21327 4.83523 6.87974L6.96696 9.91078L6.8305 10.0755C6.75305 10.1656 5.1856 11.9654 3.34893 14.075C1.51225 16.1885 0.00381269 17.9295 0.000124586 17.9491C-0.00725163 17.9687 0.313614 17.9844 0.774627 17.9805L1.56019 17.9765L1.81836 17.6746C1.9622 17.5099 3.29729 15.9768 4.78729 14.2632C6.27728 12.5497 7.53862 11.0989 7.59025 11.0361L7.68245 10.9224L8.42007 11.9733C8.82577 12.5497 9.94326 14.1417 10.9022 15.5062L12.6503 17.9844H15.3242C17.5481 17.9844 17.9944 17.9765 17.9797 17.9334C17.9686 17.902 17.29 16.9296 16.4712 15.765C15.6525 14.6044 14.7157 13.2712 14.3911 12.8085C14.0629 12.3458 13.1003 10.9695 12.2446 9.75785C11.389 8.5423 10.6883 7.53065 10.6883 7.51497C10.6883 7.48752 15.2099 2.2685 16.7478 0.5236L17.1867 0.0256157H16.379L15.575 0.0295372L14.6345 1.11177C14.1182 1.70778 12.8532 3.16644 11.8205 4.3467L9.95064 6.49547L7.68245 3.27231L5.41058 0.0452213L2.7367 0.0256157C1.26515 0.0138531 0.0517581 0.0177727 0.0443819 0.0295372ZM6.38055 3.50365C7.25463 4.75057 8.60448 6.668 9.37898 7.76984C10.1535 8.86776 11.8721 11.3145 13.1999 13.2006C14.5276 15.0906 15.6266 16.6551 15.6451 16.6826C15.6672 16.7179 15.4054 16.7296 14.4501 16.7296H13.2294L10.81 13.2869C5.22617 5.35443 2.40846 1.34703 2.37527 1.28822C2.35314 1.25293 2.60393 1.24117 3.56652 1.24117H4.78729L6.38055 3.50365Z" fill="black"/>
</svg>
