<svg width="21" height="14" viewBox="0 0 21 14" fill="none" xmlns="http://www.w3.org/2000/svg">
<path d="M8.97998 10L14.17 7L8.97998 4V10ZM20.54 2.17C20.67 2.64 20.76 3.27 20.82 4.07C20.89 4.87 20.92 5.56 20.92 6.16L20.98 7C20.98 9.19 20.82 10.8 20.54 11.83C20.29 12.73 19.71 13.31 18.81 13.56C18.34 13.69 17.48 13.78 16.16 13.84C14.86 13.91 13.67 13.94 12.57 13.94L10.98 14C6.78998 14 4.17998 13.84 3.14998 13.56C2.24998 13.31 1.66998 12.73 1.41998 11.83C1.28998 11.36 1.19998 10.73 1.13998 9.93C1.06998 9.13 1.03998 8.44 1.03998 7.84L0.97998 7C0.97998 4.81 1.13998 3.2 1.41998 2.17C1.66998 1.27 2.24998 0.69 3.14998 0.44C3.61998 0.31 4.47998 0.22 5.79998 0.16C7.09998 0.0899998 8.28998 0.0599999 9.38998 0.0599999L10.98 0C15.17 0 17.78 0.16 18.81 0.44C19.71 0.69 20.29 1.27 20.54 2.17Z" fill="white"/>
</svg>
