<svg width="24" height="24" viewBox="0 0 24 24" fill="none" xmlns="http://www.w3.org/2000/svg">
<circle cx="11" cy="11" r="8" fill="white"/>
<path d="M24 12.1487L21.3382 9.11598L21.7091 5.10143L17.7709 4.20688L15.7091 0.737793L12 2.33052L8.29091 0.737793L6.22909 4.20688L2.29091 5.09052L2.66182 9.10507L0 12.1487L2.66182 15.1814L2.29091 19.2069L6.22909 20.1014L8.29091 23.5705L12 21.9669L15.7091 23.5596L17.7709 20.0905L21.7091 19.196L21.3382 15.1814L24 12.1487ZM9.81818 17.6032L5.45455 13.2396L6.99273 11.7014L9.81818 14.516L17.0073 7.32688L18.5455 8.87598L9.81818 17.6032Z" fill="#05CE86"/>
</svg>
