<svg width="20" height="20" viewBox="0 0 20 20" fill="none" xmlns="http://www.w3.org/2000/svg">
<path d="M10 0.0390625C4.5 0.0390625 0 4.52906 0 10.0591C0 15.0591 3.66 19.2091 8.44 19.9591V12.9591H5.9V10.0591H8.44V7.84906C8.44 5.33906 9.93 3.95906 12.22 3.95906C13.31 3.95906 14.45 4.14906 14.45 4.14906V6.61906H13.19C11.95 6.61906 11.56 7.38906 11.56 8.17906V10.0591H14.34L13.89 12.9591H11.56V19.9591C13.9164 19.5869 16.0622 18.3846 17.6099 16.5691C19.1576 14.7537 20.0054 12.4447 20 10.0591C20 4.52906 15.5 0.0390625 10 0.0390625Z" fill="white"/>
</svg>
