<svg width="533" height="349" viewBox="0 0 533 349" fill="none" xmlns="http://www.w3.org/2000/svg">
<path fill-rule="evenodd" clip-rule="evenodd" d="M0 38.3385C0 17.1647 17.1647 0 38.3385 0H494.653C515.827 0 532.992 17.1647 532.992 38.3385V151.811L532.945 151.811C520.271 151.811 509.998 162.074 509.998 174.734C509.998 187.394 520.271 197.657 532.945 197.657L532.992 197.656V310.39C532.992 331.564 515.827 348.728 494.653 348.728H38.3385C17.1647 348.728 0 331.563 0 310.39V197.656C0.0310511 197.656 0.0621168 197.657 0.0931969 197.657C12.7665 197.657 23.0402 187.394 23.0402 174.734C23.0402 162.074 12.7665 151.811 0.0931969 151.811C0.0621168 151.811 0.0310511 151.811 0 151.811V38.3385Z" fill="url(#paint0_linear_1191_9037)"/>
<rect x="41.6367" y="172.699" width="26.837" height="3.83385" fill="black" fill-opacity="0.08"/>
<rect x="102.043" y="172.699" width="26.837" height="3.83385" fill="black" fill-opacity="0.08"/>
<rect x="162.445" y="172.699" width="26.837" height="3.83385" fill="black" fill-opacity="0.08"/>
<rect x="222.852" y="172.699" width="26.837" height="3.83385" fill="black" fill-opacity="0.08"/>
<rect x="283.258" y="172.699" width="26.837" height="3.83385" fill="black" fill-opacity="0.08"/>
<rect x="343.66" y="172.699" width="26.837" height="3.83385" fill="black" fill-opacity="0.08"/>
<rect x="404.066" y="172.699" width="26.837" height="3.83385" fill="black" fill-opacity="0.08"/>
<rect x="464.473" y="172.699" width="26.837" height="3.83385" fill="black" fill-opacity="0.08"/>
<path opacity="0.2" fill-rule="evenodd" clip-rule="evenodd" d="M532.99 56.0871C519.774 50.1626 505.837 45.9036 491.498 43.433C469.073 39.569 446.105 40.1553 423.906 45.1583C401.708 50.1613 380.713 59.4831 362.12 72.5915C324.571 99.065 299.088 139.355 291.276 184.598C283.464 229.84 293.964 276.33 320.465 313.84C329.73 326.953 340.756 338.688 353.208 348.728H429.863C359.347 331.963 312.942 262.805 325.43 190.482C338.419 115.253 410.299 64.5748 485.607 77.5507C502.846 80.521 518.797 86.5738 532.99 95.0447V56.0871ZM531.314 151.867C519.401 152.702 509.996 162.62 509.996 174.733C509.996 187.393 520.27 197.656 532.943 197.656L532.99 197.656V202.677C526.699 217.067 514.125 224.724 501.822 232.215C487.482 240.947 473.51 249.454 470.284 268.14L436.13 262.256C441.495 231.187 459.71 221.64 475.725 213.246C488.289 206.662 499.498 200.787 502.088 185.788C503.65 176.74 501.55 167.442 496.25 159.94C490.95 152.438 482.883 147.347 473.825 145.786C464.767 144.225 455.46 146.323 447.95 151.618C440.44 156.912 435.343 164.97 433.781 174.019L399.627 168.134C402.752 150.037 412.946 133.921 427.965 123.332C442.985 112.742 461.6 108.547 479.716 111.668C497.832 114.79 513.965 124.973 524.566 139.976C527.222 143.736 529.476 147.721 531.314 151.867ZM518.394 340.494C511.864 345.65 503.617 348.728 494.652 348.728H494.178C502.53 346.726 510.633 343.959 518.394 340.494ZM461.447 319.317L427.294 313.432L433.185 279.314L467.338 285.199L461.447 319.317Z" fill="white"/>
<defs>
<linearGradient id="paint0_linear_1191_9037" x1="-2.78606e-08" y1="165.023" x2="532.992" y2="165.023" gradientUnits="userSpaceOnUse">
<stop stop-color="#FEDC4E"/>
<stop offset="1" stop-color="#EDA336"/>
</linearGradient>
</defs>
</svg>
