<svg width="453" height="297" viewBox="0 0 453 297" fill="none" xmlns="http://www.w3.org/2000/svg">
<path fill-rule="evenodd" clip-rule="evenodd" d="M0 33.6462C0 15.0639 15.0639 0 33.6462 0H418.895C437.478 0 452.542 15.0639 452.542 33.6462V128.897L452.501 128.897C441.741 128.897 433.018 137.611 433.018 148.36C433.018 159.109 441.741 167.822 452.501 167.822L452.542 167.822V262.44C452.542 281.023 437.478 296.087 418.895 296.087H33.6462C15.064 296.087 0 281.023 0 262.44V167.822C0.025867 167.822 0.051746 167.822 0.0776367 167.822C10.838 167.822 19.561 159.109 19.561 148.36C19.561 137.611 10.838 128.897 0.0776367 128.897C0.051746 128.897 0.025867 128.897 0 128.897V33.6462Z" fill="url(#paint0_linear_2025_9105)"/>
<path opacity="0.2" fill-rule="evenodd" clip-rule="evenodd" d="M452.501 48.042V128.654L452.46 128.654C441.7 128.654 432.977 137.352 432.977 148.081C432.977 158.81 441.7 167.507 452.46 167.507L452.501 167.507V261.886C452.501 280.469 437.437 295.533 418.855 295.533H300.472C267.069 268.72 245.695 227.612 245.695 181.527C245.695 100.738 311.379 35.2461 392.405 35.2461C413.818 35.2461 434.16 39.8202 452.501 48.042Z" fill="white"/>
<rect x="35.3555" y="146.361" width="23.5523" height="3.36462" fill="black" fill-opacity="0.08"/>
<rect x="86.5352" y="146.361" width="23.5523" height="3.36462" fill="black" fill-opacity="0.08"/>
<rect x="137.711" y="146.361" width="23.5523" height="3.36462" fill="black" fill-opacity="0.08"/>
<rect x="188.891" y="146.361" width="23.5523" height="3.36462" fill="black" fill-opacity="0.08"/>
<rect x="240.066" y="146.361" width="23.5523" height="3.36462" fill="black" fill-opacity="0.08"/>
<rect x="291.246" y="146.361" width="23.5523" height="3.36462" fill="black" fill-opacity="0.08"/>
<rect x="342.422" y="146.361" width="23.5523" height="3.36462" fill="black" fill-opacity="0.08"/>
<rect x="393.602" y="146.361" width="23.5523" height="3.36462" fill="black" fill-opacity="0.08"/>
<defs>
<linearGradient id="paint0_linear_2025_9105" x1="-2.36553e-08" y1="140.112" x2="452.542" y2="140.112" gradientUnits="userSpaceOnUse">
<stop stop-color="#0275D8"/>
<stop offset="1" stop-color="#08589C"/>
</linearGradient>
</defs>
</svg>
