<svg width="454" height="297" viewBox="0 0 454 297" fill="none" xmlns="http://www.w3.org/2000/svg">
<path fill-rule="evenodd" clip-rule="evenodd" d="M0.5 34.5622C0.5 15.9799 15.5639 0.916016 34.1462 0.916016H419.395C437.978 0.916016 453.042 15.9799 453.042 34.5622V129.813L453.001 129.813C442.241 129.813 433.518 138.527 433.518 149.276C433.518 160.025 442.241 168.739 453.001 168.739L453.042 168.738V263.356C453.042 281.939 437.978 297.003 419.395 297.003H34.1462C15.564 297.003 0.5 281.939 0.5 263.356V168.738C0.525867 168.738 0.551746 168.739 0.577637 168.739C11.338 168.739 20.061 160.025 20.061 149.276C20.061 138.527 11.338 129.813 0.577637 129.813C0.551746 129.813 0.525867 129.813 0.5 129.813V34.5622Z" fill="url(#paint0_linear_1191_8973)"/>
<path opacity="0.2" fill-rule="evenodd" clip-rule="evenodd" d="M453.003 48.959V129.57L452.962 129.57C442.202 129.57 433.479 138.268 433.479 148.997C433.479 159.726 442.202 168.423 452.962 168.423L453.003 168.423V262.802C453.003 281.385 437.939 296.449 419.357 296.449H300.973C267.571 269.636 246.197 228.529 246.197 182.444C246.197 101.655 311.881 36.1631 392.907 36.1631C414.32 36.1631 434.662 40.7372 453.003 48.959Z" fill="white"/>
<rect x="35.8555" y="147.278" width="23.5523" height="3.36462" fill="black" fill-opacity="0.08"/>
<rect x="87.0332" y="147.278" width="23.5523" height="3.36462" fill="black" fill-opacity="0.08"/>
<rect x="138.211" y="147.278" width="23.5523" height="3.36462" fill="black" fill-opacity="0.08"/>
<rect x="189.389" y="147.278" width="23.5523" height="3.36462" fill="black" fill-opacity="0.08"/>
<rect x="240.568" y="147.278" width="23.5523" height="3.36462" fill="black" fill-opacity="0.08"/>
<rect x="291.746" y="147.278" width="23.5523" height="3.36462" fill="black" fill-opacity="0.08"/>
<rect x="342.922" y="147.278" width="23.5523" height="3.36462" fill="black" fill-opacity="0.08"/>
<rect x="394.102" y="147.278" width="23.5523" height="3.36462" fill="black" fill-opacity="0.08"/>
<defs>
<linearGradient id="paint0_linear_1191_8973" x1="0.5" y1="141.028" x2="453.042" y2="141.028" gradientUnits="userSpaceOnUse">
<stop stop-color="#FDDA4D"/>
<stop offset="1" stop-color="#EDA436"/>
</linearGradient>
</defs>
</svg>
