<svg width="130" height="24" viewBox="0 0 130 24" fill="none" xmlns="http://www.w3.org/2000/svg">
<path d="M35.8257 10.7934H30.8875V13.8024C30.8875 15.8202 31.2769 16.3334 33.1177 16.3334C34.0735 16.3334 34.6044 16.3334 35.8257 16.1564V18.599C34.8168 18.776 33.6664 18.8645 32.2681 18.8645C29.5777 18.8645 27.8432 17.8556 27.8432 15.5547V10.7934H25.0997V8.26239H27.8432V6.10303L30.8875 5.23574V8.26239H35.8257V10.7934ZM56.6685 8.26239H60.0491L55.3587 18.6875H51.3232L48.2611 11.4306L45.1991 18.6875H41.1636L36.4731 8.26239H39.8538L43.2698 16.3157L46.4558 8.26239H50.0665L53.2524 16.298L56.6685 8.26239ZM66.7353 18.8645C62.4166 18.8645 59.5138 17.3069 59.5138 13.4838C59.5138 9.64296 62.4166 8.08539 66.7353 8.08539C71.0363 8.08539 73.9568 9.64296 73.9568 13.4838C73.9568 17.3069 71.0363 18.8645 66.7353 18.8645ZM66.7353 16.3334C69.5319 16.3334 70.9124 15.6432 70.9124 13.4838C70.9124 11.3067 69.5319 10.6164 66.7353 10.6164C63.9211 10.6164 62.5405 11.3067 62.5405 13.4838C62.5405 15.6432 63.9211 16.3334 66.7353 16.3334ZM84.8296 8.26239H88.1926L82.9004 18.6875H78.5816L73.3071 8.26239H76.6701L80.7587 16.5458L84.8296 8.26239ZM94.698 16.4042C96.7866 16.4042 98.061 16.0148 98.8221 14.9529H101.831C101.141 17.6078 98.5566 18.8645 94.698 18.8645C90.7333 18.8645 87.6536 17.3069 87.6536 13.4838C87.6536 9.64296 90.6448 8.08539 94.875 8.08539C98.8398 8.08539 102.008 9.44827 102.008 14.1918H90.751C91.0873 15.8556 92.6803 16.4042 94.698 16.4042ZM94.8573 10.3863C92.7865 10.3863 91.3351 10.7934 90.8572 12.2625H98.769C98.2557 10.7934 96.7689 10.3863 94.8573 10.3863ZM102.691 15.0237H105.718C105.718 16.1387 106.869 16.5635 110.249 16.5635C113.524 16.5635 114.055 16.3511 114.055 15.537C114.055 14.7405 113.559 14.6874 109.895 14.4573C105.311 14.1918 103.063 13.8378 103.063 11.3244C103.063 8.59868 106.249 8.08539 109.966 8.08539C113.895 8.08539 116.745 8.59868 116.745 11.466H113.701C113.701 10.5987 112.603 10.3863 109.789 10.3863C106.922 10.3863 106.107 10.5987 106.107 11.2005C106.107 11.8554 106.656 11.9616 110.249 12.2271C114.32 12.528 117.099 12.6342 117.099 15.4131C117.099 18.3512 114.444 18.8645 110.426 18.8645C106.408 18.8645 102.691 18.3512 102.691 15.0237ZM128.127 10.7934H123.189V13.8024C123.189 15.8202 123.578 16.3334 125.419 16.3334C126.375 16.3334 126.906 16.3334 128.127 16.1564V18.599C127.118 18.776 125.967 18.8645 124.569 18.8645C121.879 18.8645 120.144 17.8556 120.144 15.5547V10.7934H117.401V8.26239H120.144V6.10303L123.189 5.23574V8.26239H128.127V10.7934Z" fill="black"/>
<path d="M8.52894 0.556152L2.66602 3.29726L11.1939 6.95207V13.8048L17.0568 11.5206V4.21096L8.52894 0.556152Z" fill="black"/>
<path d="M8.5277 22.9424L14.3906 20.2013L5.86273 16.5465L5.86273 9.69377L-0.000195339 11.978L-0.000196084 19.2876L8.5277 22.9424Z" fill="black"/>
</svg>
