<svg width="20" height="20" viewBox="0 0 20 20" fill="none" xmlns="http://www.w3.org/2000/svg">
<path d="M18.838 10.135C18.838 9.52619 18.7703 8.91739 18.7027 8.30859H10.2461V11.7585H15.0494C14.8465 12.8408 14.2376 13.8554 13.2905 14.4642V16.6965H16.1995C17.8909 15.1407 18.838 12.8408 18.838 10.135Z" fill="#4285F4"/>
<path d="M10.2467 18.8615C12.6822 18.8615 14.7118 18.0497 16.2001 16.6969L13.2911 14.4646C12.4792 15.0057 11.4644 15.344 10.2467 15.344C7.9465 15.344 5.91692 13.7882 5.24039 11.6235H2.26367V13.9234C3.81968 16.9674 6.86406 18.8615 10.2467 18.8615Z" fill="#34A853"/>
<path d="M5.2396 11.6238C4.83368 10.5415 4.83368 9.32388 5.2396 8.17393V5.87402H2.26288C0.977478 8.37686 0.977478 11.3532 2.26288 13.9237L5.2396 11.6238Z" fill="#FBBC04"/>
<path d="M10.2396 4.52114C11.525 4.52114 12.7427 4.99465 13.6899 5.87403L16.2607 3.30354C14.637 1.81537 12.4721 0.935995 10.3072 1.00364C6.9246 1.00364 3.81258 2.89768 2.32422 5.94167L5.30094 8.24158C5.90981 6.07696 7.93939 4.52114 10.2396 4.52114Z" fill="#EA4335"/>
</svg>
